<svg xmlns="http://www.w3.org/2000/svg" version="1.1" xmlns:xlink="http://www.w3.org/1999/xlink" xmlns:svgjs="http://svgjs.dev/svgjs" width="2000" height="833" viewBox="0 0 2000 833"><g transform="matrix(1,0,0,1,-1.2120835539662949,-0.6004758811562283)"><svg viewBox="0 0 396 165" data-background-color="#100b20" preserveAspectRatio="xMidYMid meet" height="833" width="2000" xmlns="http://www.w3.org/2000/svg" xmlns:xlink="http://www.w3.org/1999/xlink"><g id="tight-bounds" transform="matrix(1,0,0,1,0.2399925436853323,0.11894180118940767)"><svg viewBox="0 0 395.52 164.76211639762118" height="164.76211639762118" width="395.52"><g><svg viewBox="0 0 395.52 164.76211639762118" height="164.76211639762118" width="395.52"><g><svg viewBox="0 0 395.52 164.76211639762118" height="164.76211639762118" width="395.52"><g><svg viewBox="0 0 395.52 164.76211639762118" height="164.76211639762118" width="395.52"><g><svg viewBox="0 0 395.52 108.77841938883034" height="108.77841938883034" width="395.52"><g transform="matrix(1,0,0,1,0,0)"><svg width="395.52" viewBox="2 -37.45000076293945 139 38.22999954223633" height="108.77841938883034" data-palette-color="#ffffff"><path d="M2-1.27L2-1.27 2.25-35.64Q2.78-37.45 6.45-37.45L6.45-37.45Q9.81-37.45 12.65-36.55 15.48-35.64 17.41-33.52 19.34-31.4 19.34-28.42L19.34-28.42Q19.34-26.07 18.19-23.88 17.04-21.68 15.38-21.04L15.38-21.04Q18.51-20.61 20.41-17.29 22.31-13.96 22.31-9.42L22.31-9.42Q22.31-6.35 19.87-4.08 17.43-1.81 14.18-0.81 10.94 0.2 7.62 0.2L7.62 0.2Q3.56 0.2 2-1.27ZM6.01-18.36L6.01-18.36Q6.01-14.99 5.91-4.83L5.91-4.83Q7.37-3.17 9.67-3.17L9.67-3.17Q12.7-3.17 15.53-5.69 18.36-8.2 18.36-11.08L18.36-11.08Q18.36-14.65 15.97-16.65 13.57-18.65 9.81-18.65L9.81-18.65Q7.32-18.65 6.01-18.36ZM5.91-21.97L5.91-21.97 8.94-22.02Q12.06-22.02 13.75-23.85 15.43-25.68 15.43-28.22L15.43-28.22Q15.43-30.81 13.72-32.69 12.01-34.57 8.98-34.57L8.98-34.57Q7.62-34.57 5.76-33.98L5.76-33.98Q5.86-31.01 5.88-26.61 5.91-22.22 5.91-21.97ZM26.32-16.36L26.32-16.36Q26.32-18.02 26.32-18.87 26.32-19.73 26.39-21.48 26.46-23.24 26.58-24.27 26.71-25.29 26.95-26.93 27.19-28.56 27.59-29.57 27.98-30.57 28.49-31.84 29-33.11 29.78-33.89 30.56-34.67 31.49-35.38 32.42-36.08 33.69-36.43 34.96-36.77 36.47-36.77L36.47-36.77Q39.5-36.77 41.75-35.57 43.99-34.38 45.26-32.57 46.53-30.76 47.29-28.13 48.04-25.49 48.26-23.1 48.48-20.7 48.48-17.82L48.48-17.82Q48.48-15.87 48.41-14.31 48.34-12.74 48.12-10.77 47.9-8.79 47.48-7.28 47.07-5.76 46.34-4.22 45.6-2.69 44.6-1.68 43.6-0.68 42.09-0.05 40.57 0.59 38.72 0.59L38.72 0.59Q35.69 0.59 33.52-0.15 31.35-0.88 29.95-2.2 28.56-3.52 27.76-5.66 26.95-7.81 26.63-10.35 26.32-12.89 26.32-16.36ZM44.97-15.97L44.97-15.97Q44.97-18.36 44.6-20.95 44.24-23.54 43.38-26.51 42.53-29.49 40.67-31.37 38.82-33.25 36.23-33.25L36.23-33.25Q34.27-33.25 32.79-30.64 31.3-28.03 30.66-24.78 30.03-21.53 30.03-18.65L30.03-18.65Q30.03-16.65 30.05-15.6 30.08-14.55 30.22-12.62 30.37-10.69 30.64-9.57 30.91-8.45 31.49-6.98 32.08-5.52 32.88-4.71 33.69-3.91 34.98-3.3 36.28-2.69 37.89-2.64L37.89-2.64Q41.45-2.83 43.21-6.64 44.97-10.45 44.97-15.97ZM52.49-16.36L52.49-16.36Q52.49-18.02 52.49-18.87 52.49-19.73 52.56-21.48 52.63-23.24 52.75-24.27 52.88-25.29 53.12-26.93 53.36-28.56 53.75-29.57 54.15-30.57 54.66-31.84 55.17-33.11 55.95-33.89 56.73-34.67 57.66-35.38 58.59-36.08 59.86-36.43 61.13-36.77 62.64-36.77L62.64-36.77Q65.67-36.77 67.91-35.57 70.16-34.38 71.43-32.57 72.7-30.76 73.46-28.13 74.21-25.49 74.43-23.1 74.65-20.7 74.65-17.82L74.65-17.82Q74.65-15.87 74.58-14.31 74.51-12.74 74.29-10.77 74.07-8.79 73.65-7.28 73.24-5.76 72.5-4.22 71.77-2.69 70.77-1.68 69.77-0.68 68.26-0.05 66.74 0.59 64.89 0.59L64.89 0.59Q61.86 0.59 59.69-0.15 57.51-0.88 56.12-2.2 54.73-3.52 53.93-5.66 53.12-7.81 52.8-10.35 52.49-12.89 52.49-16.36ZM71.14-15.97L71.14-15.97Q71.14-18.36 70.77-20.95 70.41-23.54 69.55-26.51 68.7-29.49 66.84-31.37 64.99-33.25 62.4-33.25L62.4-33.25Q60.44-33.25 58.95-30.64 57.47-28.03 56.83-24.78 56.2-21.53 56.2-18.65L56.2-18.65Q56.2-16.65 56.22-15.6 56.25-14.55 56.39-12.62 56.54-10.69 56.81-9.57 57.08-8.45 57.66-6.98 58.25-5.52 59.05-4.71 59.86-3.91 61.15-3.3 62.45-2.69 64.06-2.64L64.06-2.64Q67.62-2.83 69.38-6.64 71.14-10.45 71.14-15.97ZM99.06 0.34L99.06 0.34 94.77 0.34Q93.16-1.17 91.35-3.13 89.54-5.08 88.4-6.45 87.25-7.81 85.22-10.33 83.2-12.84 82.37-13.87L82.37-13.87 83-0.68Q82.56 0.78 81.29 0.78L81.29 0.78Q80.41 0.78 79.61 0.07 78.8-0.63 78.61-1.66L78.61-1.66Q78.75-5.57 78.85-17.87 78.95-30.18 79.29-36.04L79.29-36.04 81.49-35.55Q81.63-33.11 81.83-27.08 82.02-21.04 82.12-19.04L82.12-19.04Q82.95-20.07 85.22-22.83 87.49-25.59 88.35-26.59 89.2-27.59 90.84-29.49 92.47-31.4 93.84-32.81 95.21-34.23 96.77-35.69L96.77-35.69 98.23-33.3Q96.48-30.37 84.61-16.7L84.61-16.7Q86.32-14.89 91.67-8.3 97.01-1.71 99.06 0.34ZM101.36-35.01L101.36-35.01 104.29-34.72Q105.02-27.25 105.7-3.96L105.7-3.96Q108.97-4.15 114-4.15 119.03-4.15 122.06-4.3L122.06-4.3Q122.35-3.47 122.48-1.95 122.6-0.44 122.74 0.29L122.74 0.29Q116.35-0.1 106.44-0.1L106.44-0.1 101.02-0.1Q101.26-7.32 101.28-19.43 101.31-31.54 101.36-35.01ZM138.32-35.3L138.32-35.3 141-34.47Q140.56-33.64 138.83-29.81 137.1-25.98 135.05-21.92 133-17.87 131.04-14.79L131.04-14.79Q131.24-12.4 131.29-7.37 131.34-2.34 131.48-0.15L131.48-0.15Q131.04-0.05 129.24-0.05L129.24-0.05Q127.53-0.05 127.18-0.15L127.18-0.15Q127.33-2.25 127.4-7.35 127.48-12.45 127.67-14.79L127.67-14.79Q125.23-18.85 122.23-26.12 119.23-33.4 118.4-35.11L118.4-35.11 121.67-35.35 129.38-18.75Q130.26-20.31 133.41-26.51 136.56-32.71 138.32-35.3Z" opacity="1" transform="matrix(1,0,0,1,0,0)" fill="#ffffff" class="undefined-text-0" data-fill-palette-color="primary" id="text-0"></path></svg></g></svg></g><g transform="matrix(1,0,0,1,0,134.45839352446785)"><svg viewBox="0 0 395.52 30.303722873153337" height="30.303722873153337" width="395.52"><g transform="matrix(1,0,0,1,0,0)"><svg width="395.52" viewBox="5.699999809265137 -37.349998474121094 490.6999816894531 37.599998474121094" height="30.303722873153337" data-palette-color="#89898a"><path d="M33.65 0L29.6 0 21.6-11.25Q20.25-11.1 18.8-11.1L18.8-11.1 9.4-11.1 9.4 0 5.7 0 5.7-35 18.8-35Q25.5-35 29.3-31.8 33.1-28.6 33.1-23L33.1-23Q33.1-18.9 31.03-16.07 28.95-13.25 25.1-12L25.1-12 33.65 0ZM18.7-14.25Q23.9-14.25 26.65-16.55 29.4-18.85 29.4-23L29.4-23Q29.4-27.25 26.65-29.53 23.9-31.8 18.7-31.8L18.7-31.8 9.4-31.8 9.4-14.25 18.7-14.25ZM64.05-13.15L64-12.05 42-12.05Q42.3-7.95 45.15-5.43 48-2.9 52.35-2.9L52.35-2.9Q54.8-2.9 56.85-3.78 58.9-4.65 60.4-6.35L60.4-6.35 62.4-4.05Q60.65-1.95 58.02-0.85 55.4 0.25 52.25 0.25L52.25 0.25Q48.2 0.25 45.07-1.48 41.95-3.2 40.2-6.25 38.45-9.3 38.45-13.15L38.45-13.15Q38.45-17 40.12-20.05 41.8-23.1 44.72-24.8 47.65-26.5 51.3-26.5L51.3-26.5Q54.95-26.5 57.85-24.8 60.75-23.1 62.4-20.08 64.05-17.05 64.05-13.15L64.05-13.15ZM51.3-23.45Q47.5-23.45 44.92-21.03 42.35-18.6 42-14.7L42-14.7 60.65-14.7Q60.3-18.6 57.72-21.03 55.15-23.45 51.3-23.45L51.3-23.45ZM79.75-26.5Q84.89-26.5 87.64-23.93 90.39-21.35 90.39-16.3L90.39-16.3 90.39 0 87 0 87-4.1Q85.8-2.05 83.47-0.9 81.14 0.25 77.94 0.25L77.94 0.25Q73.55 0.25 70.94-1.85 68.34-3.95 68.34-7.4L68.34-7.4Q68.34-10.75 70.77-12.8 73.19-14.85 78.5-14.85L78.5-14.85 86.84-14.85 86.84-16.45Q86.84-19.85 84.94-21.63 83.05-23.4 79.39-23.4L79.39-23.4Q76.89-23.4 74.59-22.58 72.3-21.75 70.64-20.3L70.64-20.3 69.05-22.95Q71.05-24.65 73.84-25.58 76.64-26.5 79.75-26.5L79.75-26.5ZM78.5-2.55Q81.5-2.55 83.64-3.93 85.8-5.3 86.84-7.9L86.84-7.9 86.84-12.2 78.59-12.2Q71.84-12.2 71.84-7.5L71.84-7.5Q71.84-5.2 73.59-3.88 75.34-2.55 78.5-2.55L78.5-2.55ZM120.59-37.1L124.14-37.1 124.14 0 120.74 0 120.74-5.2Q119.14-2.55 116.52-1.15 113.89 0.25 110.59 0.25L110.59 0.25Q106.89 0.25 103.89-1.45 100.89-3.15 99.19-6.2 97.49-9.25 97.49-13.15L97.49-13.15Q97.49-17.05 99.19-20.1 100.89-23.15 103.89-24.83 106.89-26.5 110.59-26.5L110.59-26.5Q113.79-26.5 116.37-25.18 118.94-23.85 120.59-21.3L120.59-21.3 120.59-37.1ZM110.89-2.9Q113.64-2.9 115.87-4.17 118.09-5.45 119.37-7.8 120.64-10.15 120.64-13.15L120.64-13.15Q120.64-16.15 119.37-18.5 118.09-20.85 115.87-22.13 113.64-23.4 110.89-23.4L110.89-23.4Q108.09-23.4 105.87-22.13 103.64-20.85 102.37-18.5 101.09-16.15 101.09-13.15L101.09-13.15Q101.09-10.15 102.37-7.8 103.64-5.45 105.87-4.17 108.09-2.9 110.89-2.9L110.89-2.9ZM160.69-26.5Q164.39-26.5 167.39-24.83 170.39-23.15 172.09-20.1 173.79-17.05 173.79-13.15L173.79-13.15Q173.79-9.25 172.09-6.2 170.39-3.15 167.39-1.45 164.39 0.25 160.69 0.25L160.69 0.25Q157.39 0.25 154.76-1.15 152.14-2.55 150.54-5.2L150.54-5.2 150.54 0 147.14 0 147.14-37.1 150.69-37.1 150.69-21.3Q152.34-23.85 154.91-25.18 157.49-26.5 160.69-26.5L160.69-26.5ZM160.44-2.9Q163.19-2.9 165.44-4.17 167.69-5.45 168.96-7.8 170.24-10.15 170.24-13.15L170.24-13.15Q170.24-16.15 168.96-18.5 167.69-20.85 165.44-22.13 163.19-23.4 160.44-23.4L160.44-23.4Q157.64-23.4 155.41-22.13 153.19-20.85 151.91-18.5 150.64-16.15 150.64-13.15L150.64-13.15Q150.64-10.15 151.91-7.8 153.19-5.45 155.41-4.17 157.64-2.9 160.44-2.9L160.44-2.9ZM191.78 0.25Q187.99 0.25 184.94-1.48 181.89-3.2 180.14-6.25 178.39-9.3 178.39-13.15L178.39-13.15Q178.39-17 180.14-20.05 181.89-23.1 184.94-24.8 187.99-26.5 191.78-26.5L191.78-26.5Q195.59-26.5 198.64-24.8 201.69-23.1 203.41-20.05 205.14-17 205.14-13.15L205.14-13.15Q205.14-9.3 203.41-6.25 201.69-3.2 198.64-1.48 195.59 0.25 191.78 0.25L191.78 0.25ZM191.78-2.9Q194.59-2.9 196.81-4.17 199.04-5.45 200.29-7.8 201.54-10.15 201.54-13.15L201.54-13.15Q201.54-16.15 200.29-18.5 199.04-20.85 196.81-22.13 194.59-23.4 191.78-23.4L191.78-23.4Q188.99-23.4 186.76-22.13 184.53-20.85 183.26-18.5 181.99-16.15 181.99-13.15L181.99-13.15Q181.99-10.15 183.26-7.8 184.53-5.45 186.76-4.17 188.99-2.9 191.78-2.9L191.78-2.9ZM223.13 0.25Q219.33 0.25 216.28-1.48 213.23-3.2 211.48-6.25 209.73-9.3 209.73-13.15L209.73-13.15Q209.73-17 211.48-20.05 213.23-23.1 216.28-24.8 219.33-26.5 223.13-26.5L223.13-26.5Q226.93-26.5 229.98-24.8 233.03-23.1 234.76-20.05 236.48-17 236.48-13.15L236.48-13.15Q236.48-9.3 234.76-6.25 233.03-3.2 229.98-1.48 226.93 0.25 223.13 0.25L223.13 0.25ZM223.13-2.9Q225.93-2.9 228.16-4.17 230.38-5.45 231.63-7.8 232.88-10.15 232.88-13.15L232.88-13.15Q232.88-16.15 231.63-18.5 230.38-20.85 228.16-22.13 225.93-23.4 223.13-23.4L223.13-23.4Q220.33-23.4 218.11-22.13 215.88-20.85 214.61-18.5 213.33-16.15 213.33-13.15L213.33-13.15Q213.33-10.15 214.61-7.8 215.88-5.45 218.11-4.17 220.33-2.9 223.13-2.9L223.13-2.9ZM264.08 0L253.48-13.2 247.28-7.5 247.28 0 243.73 0 243.73-37.1 247.28-37.1 247.28-11.95 262.98-26.3 267.38-26.3 256.13-15.55 268.43 0 264.08 0ZM280.03 0.25Q276.83 0.25 273.9-0.68 270.98-1.6 269.33-3L269.33-3 270.93-5.8Q272.58-4.5 275.08-3.68 277.58-2.85 280.28-2.85L280.28-2.85Q283.88-2.85 285.6-3.98 287.33-5.1 287.33-7.15L287.33-7.15Q287.33-8.6 286.38-9.43 285.43-10.25 283.98-10.68 282.53-11.1 280.13-11.5L280.13-11.5Q276.93-12.1 274.98-12.73 273.03-13.35 271.65-14.85 270.28-16.35 270.28-19L270.28-19Q270.28-22.3 273.03-24.4 275.78-26.5 280.68-26.5L280.68-26.5Q283.23-26.5 285.78-25.83 288.33-25.15 289.98-24.05L289.98-24.05 288.43-21.2Q285.18-23.45 280.68-23.45L280.68-23.45Q277.28-23.45 275.55-22.25 273.83-21.05 273.83-19.1L273.83-19.1Q273.83-17.6 274.8-16.7 275.78-15.8 277.23-15.38 278.68-14.95 281.23-14.5L281.23-14.5Q284.38-13.9 286.28-13.3 288.18-12.7 289.53-11.25 290.88-9.8 290.88-7.25L290.88-7.25Q290.88-3.8 288-1.78 285.13 0.25 280.03 0.25L280.03 0.25ZM319.22-34.35Q316.92-34.35 315.75-33.1 314.57-31.85 314.57-29.4L314.57-29.4 314.57-26.3 322.67-26.3 322.67-23.3 314.67-23.3 314.67 0 311.12 0 311.12-23.3 306.42-23.3 306.42-26.3 311.12-26.3 311.12-29.55Q311.12-33.15 313.2-35.25 315.27-37.35 319.07-37.35L319.07-37.35Q320.57-37.35 321.97-36.93 323.37-36.5 324.32-35.7L324.32-35.7 323.12-33.05Q321.57-34.35 319.22-34.35L319.22-34.35ZM337.77 0.25Q333.97 0.25 330.92-1.48 327.87-3.2 326.12-6.25 324.37-9.3 324.37-13.15L324.37-13.15Q324.37-17 326.12-20.05 327.87-23.1 330.92-24.8 333.97-26.5 337.77-26.5L337.77-26.5Q341.57-26.5 344.62-24.8 347.67-23.1 349.39-20.05 351.12-17 351.12-13.15L351.12-13.15Q351.12-9.3 349.39-6.25 347.67-3.2 344.62-1.48 341.57 0.25 337.77 0.25L337.77 0.25ZM337.77-2.9Q340.57-2.9 342.8-4.17 345.02-5.45 346.27-7.8 347.52-10.15 347.52-13.15L347.52-13.15Q347.52-16.15 346.27-18.5 345.02-20.85 342.8-22.13 340.57-23.4 337.77-23.4L337.77-23.4Q334.97-23.4 332.75-22.13 330.52-20.85 329.25-18.5 327.97-16.15 327.97-13.15L327.97-13.15Q327.97-10.15 329.25-7.8 330.52-5.45 332.75-4.17 334.97-2.9 337.77-2.9L337.77-2.9ZM361.77-21.15Q363.02-23.8 365.49-25.15 367.97-26.5 371.62-26.5L371.62-26.5 371.62-23.05 370.77-23.1Q366.62-23.1 364.27-20.55 361.92-18 361.92-13.4L361.92-13.4 361.92 0 358.37 0 358.37-26.3 361.77-26.3 361.77-21.15ZM400.21-34.35Q397.91-34.35 396.74-33.1 395.56-31.85 395.56-29.4L395.56-29.4 395.56-26.3 403.66-26.3 403.66-23.3 395.66-23.3 395.66 0 392.11 0 392.11-23.3 387.41-23.3 387.41-26.3 392.11-26.3 392.11-29.55Q392.11-33.15 394.19-35.25 396.26-37.35 400.06-37.35L400.06-37.35Q401.56-37.35 402.96-36.93 404.36-36.5 405.31-35.7L405.31-35.7 404.11-33.05Q402.56-34.35 400.21-34.35L400.21-34.35ZM415.86-21.15Q417.11-23.8 419.59-25.15 422.06-26.5 425.71-26.5L425.71-26.5 425.71-23.05 424.86-23.1Q420.71-23.1 418.36-20.55 416.01-18 416.01-13.4L416.01-13.4 416.01 0 412.46 0 412.46-26.3 415.86-26.3 415.86-21.15ZM454.81-13.15L454.76-12.05 432.76-12.05Q433.06-7.95 435.91-5.43 438.76-2.9 443.11-2.9L443.11-2.9Q445.56-2.9 447.61-3.78 449.66-4.65 451.16-6.35L451.16-6.35 453.16-4.05Q451.41-1.95 448.78-0.85 446.16 0.25 443.01 0.25L443.01 0.25Q438.96 0.25 435.83-1.48 432.71-3.2 430.96-6.25 429.21-9.3 429.21-13.15L429.21-13.15Q429.21-17 430.88-20.05 432.56-23.1 435.48-24.8 438.41-26.5 442.06-26.5L442.06-26.5Q445.71-26.5 448.61-24.8 451.51-23.1 453.16-20.08 454.81-17.05 454.81-13.15L454.81-13.15ZM442.06-23.45Q438.26-23.45 435.68-21.03 433.11-18.6 432.76-14.7L432.76-14.7 451.41-14.7Q451.06-18.6 448.48-21.03 445.91-23.45 442.06-23.45L442.06-23.45ZM485.01-13.15L484.96-12.05 462.96-12.05Q463.26-7.95 466.11-5.43 468.96-2.9 473.31-2.9L473.31-2.9Q475.76-2.9 477.81-3.78 479.86-4.65 481.36-6.35L481.36-6.35 483.36-4.05Q481.61-1.95 478.98-0.85 476.36 0.25 473.21 0.25L473.21 0.25Q469.16 0.25 466.03-1.48 462.91-3.2 461.16-6.25 459.41-9.3 459.41-13.15L459.41-13.15Q459.41-17 461.08-20.05 462.76-23.1 465.68-24.8 468.61-26.5 472.26-26.5L472.26-26.5Q475.91-26.5 478.81-24.8 481.71-23.1 483.36-20.08 485.01-17.05 485.01-13.15L485.01-13.15ZM472.26-23.45Q468.46-23.45 465.88-21.03 463.31-18.6 462.96-14.7L462.96-14.7 481.61-14.7Q481.26-18.6 478.68-21.03 476.11-23.45 472.26-23.45L472.26-23.45ZM492.4-10.5L491.7-35 495.9-35 495.15-10.5 492.4-10.5ZM493.8 0.25Q492.7 0.25 491.93-0.53 491.15-1.3 491.15-2.35L491.15-2.35Q491.15-3.45 491.9-4.17 492.65-4.9 493.8-4.9L493.8-4.9Q494.9-4.9 495.65-4.17 496.4-3.45 496.4-2.35L496.4-2.35Q496.4-1.3 495.65-0.53 494.9 0.25 493.8 0.25L493.8 0.25Z" opacity="1" transform="matrix(1,0,0,1,0,0)" fill="#89898a" class="undefined-text-1" data-fill-palette-color="secondary" id="text-1"></path></svg></g></svg></g></svg></g></svg></g><g></g></svg></g><defs></defs></svg><rect width="395.52" height="164.76211639762118" fill="none" stroke="none" visibility="hidden"></rect></g></svg></g></svg>